<svg version="1.1" id="Layer_1" xmlns="http://www.w3.org/2000/svg" xmlns:xlink="http://www.w3.org/1999/xlink" x="0px" y="0px"
	 width="100%" viewBox="0 0 1179 1265" enable-background="new 0 0 1179 1265" xml:space="preserve">
<path fill="#FEFFFF" opacity="1.000000" stroke="none" 
	d="
M670.000000,1266.000000 
	C446.666656,1266.000000 223.833328,1266.000000 1.000000,1266.000000 
	C1.000000,844.333313 1.000000,422.666656 1.000000,1.000000 
	C394.000000,1.000000 787.000000,1.000000 1180.000000,1.000000 
	C1180.000000,422.666656 1180.000000,844.333313 1180.000000,1266.000000 
	C1010.166687,1266.000000 840.333313,1266.000000 670.000000,1266.000000 
M1081.399048,336.937897 
	C1081.399048,336.937897 1081.477417,336.944244 1080.281616,336.474426 
	C1079.906616,336.267395 1079.531738,336.060364 1079.240967,335.892883 
	C1079.240967,335.892883 1079.322998,335.925171 1078.382324,335.550201 
	C1077.731934,335.379486 1077.081665,335.208771 1076.501709,334.857605 
	C1076.501709,334.857605 1076.456543,335.013031 1075.423218,334.472656 
	C1075.047607,334.372772 1074.671875,334.272858 1073.959106,333.752716 
	C1073.273071,333.537231 1072.586914,333.321716 1071.345459,332.708923 
	C1070.292603,332.216156 1069.260376,331.672150 1068.183960,331.237976 
	C1030.327515,315.969330 991.571838,303.381836 951.709595,294.696014 
	C921.021484,288.009216 890.022583,282.711304 859.086182,277.222595 
	C848.147095,275.281799 836.983948,274.603729 825.196533,273.170013 
	C824.451233,273.168060 823.705994,273.166138 822.299622,272.793579 
	C820.505432,272.634003 818.711304,272.474426 816.289856,272.108246 
	C815.851562,272.112427 815.413269,272.116577 814.281616,271.798889 
	C778.571533,269.732697 742.881348,266.568726 707.145569,265.921509 
	C674.067749,265.322479 640.889771,266.573700 607.851929,268.586487 
	C580.496460,270.253082 553.280884,274.217438 525.346375,277.098480 
	C524.922607,277.203094 524.498840,277.307739 523.243225,277.208496 
	C513.553833,278.752533 503.855682,280.243958 494.176453,281.849426 
	C442.874298,290.358887 392.555420,302.748383 343.535126,320.212494 
	C302.492340,334.834534 262.930237,352.603455 226.600876,376.875671 
	C215.588989,384.232910 205.431793,392.869385 194.336853,401.201263 
	C194.211426,401.363190 194.085999,401.525116 193.688797,401.499542 
	C193.688797,401.499542 193.428741,401.701843 193.428741,401.701843 
	C193.428741,401.701843 193.513611,402.020599 193.064255,402.262878 
	C192.975601,402.408142 192.886948,402.553406 192.125885,402.852295 
	C189.310638,405.500336 186.495377,408.148346 183.266830,410.951355 
	C183.009430,411.128387 182.853851,411.370758 182.142792,411.862305 
	C180.505844,413.592468 178.868881,415.322601 176.900650,417.255066 
	C176.900650,417.255066 176.751114,417.613220 176.104828,417.828003 
	C167.784241,428.232880 159.463654,438.637756 150.843018,449.249756 
	C150.843018,449.249756 150.742477,449.600220 150.141891,449.918182 
	C139.763458,465.930359 131.973236,482.972107 129.175110,502.696106 
	C129.176819,503.125519 129.178513,503.554932 128.876465,504.700867 
	C125.785583,522.724182 127.440704,540.445007 132.836456,557.784546 
	C138.651535,576.471741 147.516708,593.578979 160.899475,608.113220 
	C160.899475,608.113220 160.634140,608.348999 160.782181,609.014099 
	C165.548370,614.297363 170.314560,619.580627 175.063217,624.953491 
	C175.063217,624.953491 175.147308,624.917908 175.304245,625.488281 
	C175.892487,625.954468 176.480728,626.420715 177.017502,626.965271 
	C177.017502,626.965271 177.106628,626.936218 177.185043,627.601257 
	C184.823593,634.298401 192.462128,640.995544 200.134125,647.879150 
	C200.134125,647.879150 200.323364,647.887390 200.578308,648.470520 
	C204.899094,651.790649 209.219894,655.110840 213.540680,658.430969 
	C213.528030,656.690979 212.998779,655.664795 212.356079,654.715454 
	C202.942444,640.810669 196.311569,625.687439 193.520828,609.123169 
	C192.179474,601.161682 192.038696,592.997925 191.539597,584.474060 
	C191.595383,584.138245 191.538452,583.822754 191.861588,582.951782 
	C192.049149,580.272888 192.236725,577.594055 192.665695,574.278687 
	C192.667053,573.827820 192.668411,573.376892 193.130371,572.328430 
	C196.365173,561.529358 199.599960,550.730225 203.310867,539.444641 
	C207.962219,531.402527 212.343369,523.187317 217.349304,515.372314 
	C221.448807,508.972351 226.292496,503.049072 230.928085,496.931152 
	C230.928085,496.931152 230.918930,496.808533 231.547089,496.622742 
	C239.863129,488.046448 248.179169,479.470123 256.912811,470.672058 
	C256.912811,470.672058 257.136688,470.255585 257.817230,470.107910 
	C276.605804,453.862640 296.642761,439.326721 317.971802,426.612152 
	C378.819916,390.339600 444.323059,365.389709 512.466797,346.902405 
	C524.948120,343.516235 537.439819,340.168762 550.616455,336.821594 
	C551.051331,336.681885 551.486145,336.542145 552.702148,336.606079 
	C576.808105,331.891418 600.903381,327.121246 625.025330,322.490143 
	C634.280518,320.713287 643.596619,319.253571 653.631287,317.732666 
	C654.111816,317.608459 654.592285,317.484253 655.893799,317.626160 
	C659.364075,317.241028 662.844299,316.928253 666.302795,316.456757 
	C675.495850,315.203369 684.679565,313.881561 694.560303,312.699066 
	C695.017029,312.609924 695.473694,312.520782 696.794739,312.721344 
	C698.787903,312.592407 700.780579,312.453918 702.774353,312.335968 
	C736.821167,310.321350 770.844238,307.532898 804.920776,306.479034 
	C855.734924,304.907562 906.424255,307.904419 956.880127,314.166565 
	C992.062439,318.533051 1026.794189,325.416687 1061.798950,334.281708 
	C1065.209717,335.095642 1068.620483,335.909576 1072.527954,336.974731 
	C1072.891479,337.025696 1073.255127,337.076660 1073.956421,337.512421 
	C1074.284180,337.554871 1074.612061,337.597321 1075.604614,337.996857 
	C1078.631836,339.032837 1081.659058,340.068817 1084.686157,341.104767 
	C1085.153320,340.438782 1085.620483,339.772797 1086.087646,339.106781 
	C1085.173706,338.754730 1084.259766,338.402679 1083.126587,337.719208 
	C1082.749756,337.639893 1082.372803,337.560577 1081.721558,337.138275 
	C1081.721558,337.138275 1081.305542,336.997467 1081.399048,336.937897 
M882.264038,212.275558 
	C873.180420,210.525146 864.096802,208.774750 854.256348,206.909698 
	C851.081726,206.066254 847.953552,204.910431 844.724854,204.431030 
	C826.454346,201.718124 808.231384,198.361725 789.858521,196.729797 
	C752.213928,193.386093 714.525513,189.948547 676.780029,188.471237 
	C625.462585,186.462784 574.125427,188.396851 523.080078,194.329300 
	C491.515778,197.997665 460.007141,202.476913 428.689850,207.852356 
	C391.936584,214.160889 355.858276,223.557709 320.352448,235.066742 
	C271.385590,250.939102 224.231110,270.738068 181.061432,299.170105 
	C152.466156,318.003296 126.615425,339.856476 107.155266,368.410919 
	C86.312866,398.993530 76.615898,432.272125 84.752121,469.230560 
	C87.003693,479.458221 90.928528,489.317535 94.085640,499.345856 
	C94.661438,499.215942 95.237236,499.086029 95.813034,498.956146 
	C95.899902,497.707123 96.025749,496.459412 96.067673,495.208862 
	C96.534866,481.272491 99.348076,467.811554 104.150658,454.736877 
	C114.659622,426.127045 132.626526,402.539673 154.063461,381.437714 
	C189.118744,346.930145 230.429977,321.495331 274.253876,299.892670 
	C323.515442,275.609497 374.964264,257.011810 428.098358,243.422791 
	C460.957367,235.019104 494.152222,227.688141 527.494629,221.476593 
	C567.930298,213.943604 608.836182,209.462891 649.903198,206.612427 
	C701.156494,203.054916 752.414490,202.123535 803.708008,205.518448 
	C815.136108,206.274826 826.552734,207.202637 838.690247,208.370132 
	C843.192810,208.654282 847.695312,208.938431 852.833069,209.420776 
	C853.496033,209.455246 854.158936,209.489716 855.599670,209.898972 
	C863.593506,210.978638 871.580444,212.117126 879.589539,213.068115 
	C880.667236,213.196091 881.857056,212.379501 882.955139,211.870743 
	C882.955139,211.870743 883.165100,211.923370 883.165100,211.923370 
	C883.165100,211.923370 883.003540,212.000290 882.264038,212.275558 
M732.973816,374.500000 
	C732.973816,564.179993 732.973816,753.859985 732.973816,943.772949 
	C734.423645,943.582275 735.085083,943.549255 735.720886,943.403870 
	C764.853455,936.742249 794.289856,932.476379 824.228882,932.195068 
	C831.059875,932.130920 831.061951,932.166870 831.061951,925.505127 
	C831.062195,731.065063 831.061951,536.625061 831.061829,342.184998 
	C831.061829,341.351929 830.978088,340.508789 831.076660,339.687561 
	C831.450073,336.577026 830.434448,335.142151 826.985046,335.270447 
	C797.028015,336.384521 767.067017,337.393707 737.105713,338.390015 
	C733.972534,338.494263 732.852661,339.780762 732.912292,343.010803 
	C733.100037,353.170776 732.976746,363.336487 732.973816,374.500000 
M662.206543,853.500244 
	C662.206543,684.622620 662.206543,515.744995 662.206543,346.444366 
	C659.591064,346.683258 657.771362,346.715057 656.002502,347.031097 
	C627.338013,352.152435 598.700134,357.427216 570.002014,362.351349 
	C564.822510,363.240051 563.595703,365.325287 563.599304,370.445374 
	C563.749207,582.085754 563.728210,793.726257 563.728638,1005.366760 
	C563.728638,1007.490112 563.728577,1009.613464 563.728577,1012.228394 
	C565.350708,1011.636902 566.313721,1011.432556 567.127930,1010.967590 
	C596.366394,994.272217 626.649170,979.765564 658.112793,967.775452 
	C661.631287,966.434631 662.286682,964.361816 662.276917,960.986938 
	C662.174683,925.491638 662.209167,889.995911 662.206543,853.500244 
M492.968597,583.500000 
	C492.968597,516.800781 492.968597,450.101562 492.968597,382.890747 
	C490.997498,383.339417 490.013580,383.451202 489.111847,383.784912 
	C460.112762,394.517487 431.180298,405.434875 402.081604,415.889679 
	C395.976746,418.083069 394.503418,421.374359 394.507324,427.542664 
	C394.660583,669.504700 394.628571,911.466797 394.632996,1153.428955 
	C394.633026,1155.025024 394.802582,1156.621216 394.947693,1159.182495 
	C396.412384,1157.392456 397.290833,1156.427002 398.049988,1155.375488 
	C423.306732,1120.391724 453.994659,1090.736450 487.852356,1064.252808 
	C491.689575,1061.251343 493.075500,1058.238281 493.071655,1053.427002 
	C492.946472,897.118103 492.968475,740.809021 492.968597,583.500000 
z"/>
<path fill="#024AAC" opacity="1.000000" stroke="none" 
	d="
M732.973816,374.000000 
	C732.976746,363.336487 733.100037,353.170776 732.912292,343.010803 
	C732.852661,339.780762 733.972534,338.494263 737.105713,338.390015 
	C767.067017,337.393707 797.028015,336.384521 826.985046,335.270447 
	C830.434448,335.142151 831.450073,336.577026 831.076660,339.687561 
	C830.978088,340.508789 831.061829,341.351929 831.061829,342.184998 
	C831.061951,536.625061 831.062195,731.065063 831.061951,925.505127 
	C831.061951,932.166870 831.059875,932.130920 824.228882,932.195068 
	C794.289856,932.476379 764.853455,936.742249 735.720886,943.403870 
	C735.085083,943.549255 734.423645,943.582275 732.973816,943.772949 
	C732.973816,753.859985 732.973816,564.179993 732.973816,374.000000 
z"/>
<path fill="#034AAC" opacity="1.000000" stroke="none" 
	d="
M814.974976,272.120728 
	C815.413269,272.116577 815.851562,272.112427 816.702026,272.547668 
	C819.063049,273.046082 821.011841,273.105133 822.960693,273.164185 
	C823.705994,273.166138 824.451233,273.168060 825.669800,273.602875 
	C827.822998,274.648743 829.457947,275.582458 831.189758,275.825165 
	C848.505676,278.251770 865.894897,280.210938 883.148560,283.010406 
	C899.898193,285.728119 916.561218,289.046875 933.172180,292.531281 
	C946.291199,295.283234 959.308533,298.548645 972.306702,301.839935 
	C985.385681,305.151672 998.505493,308.388275 1011.386414,312.372223 
	C1024.753418,316.506470 1037.885620,321.413788 1051.059448,326.152527 
	C1056.686646,328.176758 1062.159424,330.630737 1068.013916,333.016357 
	C1067.228638,333.550537 1066.969849,333.875580 1066.703247,333.882172 
	C1065.543701,333.910889 1064.381836,333.846832 1062.914551,333.622559 
	C1049.503784,329.998199 1036.526123,325.928223 1023.263245,323.296631 
	C1006.088196,319.888824 988.734253,317.260132 971.368835,314.965179 
	C948.915100,311.997772 926.419250,309.148468 903.856445,307.270233 
	C885.501038,305.742249 867.025391,305.383698 848.594055,305.113281 
	C825.953064,304.781036 803.279114,304.440216 780.662903,305.278229 
	C756.158813,306.186127 731.700073,308.381409 707.234131,310.186493 
	C703.431702,310.467010 699.696655,311.660431 695.930420,312.431671 
	C695.473694,312.520782 695.017029,312.609924 693.894775,312.410156 
	C684.770386,312.950287 676.291565,313.619904 667.860901,314.674622 
	C663.553589,315.213501 659.332764,316.442780 655.072815,317.360046 
	C654.592285,317.484253 654.111816,317.608459 652.951660,317.453217 
	C644.501160,316.688721 637.051575,318.413757 629.485413,319.941162 
	C613.944397,323.078491 598.266907,325.536652 582.655579,328.330139 
	C574.064697,329.867432 565.466675,331.389679 556.936523,333.220184 
	C555.120728,333.609863 553.585510,335.307434 551.921021,336.402435 
	C551.486145,336.542145 551.051331,336.681885 550.010498,336.564331 
	C543.804077,337.441956 538.201233,338.565399 532.603943,339.715729 
	C529.040710,340.448059 525.422974,341.005096 521.940002,342.019379 
	C514.664551,344.137939 507.485474,346.585419 500.222107,348.747589 
	C494.933441,350.321930 489.557434,351.600464 484.248291,353.109070 
	C475.542419,355.582855 466.769073,357.867462 458.195435,360.742493 
	C451.501129,362.987305 445.121094,366.151215 438.503632,368.647491 
	C429.409027,372.078247 420.071472,374.903137 411.110321,378.640472 
	C397.954010,384.127472 385.041748,390.199036 372.018738,396.006348 
	C367.221924,398.145386 362.245178,399.941772 357.631317,402.417786 
	C347.372711,407.922913 337.379303,413.922455 327.117676,419.421661 
	C310.866089,428.130951 295.445129,438.063995 280.937256,449.447937 
	C277.198578,452.381561 272.812164,454.534546 269.275482,457.669159 
	C264.926788,461.523438 261.156799,466.030609 257.136688,470.255585 
	C257.136688,470.255585 256.912811,470.672058 256.358307,470.769287 
	C254.737823,471.266205 253.419632,471.393799 252.647034,472.109924 
	C247.831619,476.573639 242.884781,480.940002 238.493057,485.800812 
	C235.533157,489.076874 233.414124,493.112610 230.918930,496.808533 
	C230.918930,496.808533 230.928085,496.931152 230.519714,496.928040 
	C229.334854,497.473358 228.346024,497.866730 227.814789,498.594269 
	C222.493256,505.882080 216.952103,513.034973 212.074356,520.613098 
	C208.286377,526.498169 205.352631,532.932983 201.764206,539.321350 
	C196.310257,547.343018 195.281189,556.536743 193.103485,565.329956 
	C192.504288,567.749390 192.790054,570.388000 192.669769,572.926025 
	C192.668411,573.376892 192.667053,573.827820 192.209167,574.762268 
	C191.624710,578.006470 191.496765,580.767090 191.368820,583.527710 
	C191.538452,583.822754 191.595383,584.138245 191.107330,584.962830 
	C190.801895,591.677490 190.208679,598.022156 191.211395,604.103638 
	C193.070755,615.380432 194.323166,626.913208 200.436035,637.087219 
	C202.325699,640.232178 203.502106,643.805725 205.318542,647.887390 
	C203.162018,647.887390 201.742691,647.887390 200.323364,647.887390 
	C200.323364,647.887390 200.134125,647.879150 200.104355,647.442749 
	C198.818436,645.330261 197.763748,643.443115 196.268967,642.017212 
	C191.448776,637.419006 186.536530,632.909546 181.492081,628.560364 
	C180.385788,627.606567 178.586670,627.456482 177.106628,626.936218 
	C177.106628,626.936218 177.017502,626.965271 177.023926,626.613586 
	C176.402664,625.813904 175.774979,625.365906 175.147308,624.917908 
	C175.147308,624.917908 175.063217,624.953491 175.064514,624.549194 
	C171.433411,619.394897 167.875778,614.583923 164.103073,609.947998 
	C163.381409,609.061279 161.812286,608.864197 160.634140,608.348999 
	C160.634140,608.348999 160.899475,608.113220 160.872772,607.844116 
	C160.481674,606.519409 160.326706,605.320862 159.719482,604.430969 
	C155.221817,597.839294 150.390701,591.463135 146.126068,584.726929 
	C137.536499,571.159363 133.538330,555.710571 130.390320,540.326965 
	C128.479813,530.990723 129.962051,520.967896 129.828140,511.254791 
	C129.794693,508.828796 129.405762,506.407684 129.180222,503.984344 
	C129.178513,503.554932 129.176819,503.125519 129.628693,502.309998 
	C130.694427,500.663635 131.606720,499.463287 131.871948,498.133850 
	C134.326675,485.830414 138.912994,474.346527 144.705399,463.262360 
	C147.006409,458.859161 148.746811,454.162994 150.742462,449.600220 
	C150.742477,449.600220 150.843018,449.249756 151.330460,449.106964 
	C152.700104,448.235718 153.739365,447.633087 154.439651,446.758881 
	C159.993301,439.826447 165.525177,432.875427 170.969559,425.857056 
	C173.024399,423.208130 174.831207,420.366821 176.751099,417.613220 
	C176.751114,417.613220 176.900650,417.255066 177.418762,417.162354 
	C179.557968,415.272583 181.179031,413.475525 182.800095,411.678467 
	C182.853851,411.370758 183.009430,411.128387 183.836670,410.924194 
	C187.203796,408.164246 190.001068,405.431458 192.798309,402.698669 
	C192.886948,402.553406 192.975601,402.408142 193.400177,402.151947 
	C193.736084,402.041016 193.960571,401.687042 193.960571,401.687042 
	C194.085999,401.525116 194.211426,401.363190 194.978912,401.095581 
	C197.013702,400.186310 198.496902,399.505768 199.784668,398.559326 
	C208.791595,391.939880 217.393768,384.686005 226.828888,378.753876 
	C238.912399,371.156647 251.505829,364.322998 264.155823,357.686951 
	C278.061981,350.391937 292.109955,343.314240 306.417816,336.854279 
	C318.640137,331.335968 331.215179,326.544037 343.825928,321.958038 
	C354.157593,318.200836 364.758911,315.179199 375.264587,311.908325 
	C383.199707,309.437805 391.160522,307.047485 399.133972,304.703400 
	C402.892212,303.598511 406.699615,302.656982 410.497620,301.692078 
	C419.458954,299.415375 428.383728,296.970245 437.405243,294.961365 
	C448.327423,292.529266 459.295380,290.257324 470.313538,288.312744 
	C485.431641,285.644623 500.634277,283.455994 515.754700,280.800201 
	C518.637573,280.293854 521.307129,278.572937 524.075073,277.412415 
	C524.498840,277.307739 524.922607,277.203094 525.978699,277.378601 
	C527.933655,277.738373 529.277405,278.010895 530.575623,277.868225 
	C545.533875,276.224304 560.459778,274.231049 575.444580,272.896027 
	C596.580078,271.013031 617.738708,269.242462 638.924377,268.123230 
	C652.661621,267.397522 666.468933,267.684631 680.237549,267.929871 
	C710.332520,268.465881 740.425537,269.169891 770.513367,270.017456 
	C778.788818,270.250580 787.034851,271.393433 795.309814,271.820190 
	C801.852600,272.157593 808.419067,272.037598 814.974976,272.120728 
z"/>
<path fill="#064CAB" opacity="1.000000" stroke="none" 
	d="
M854.821899,209.524185 
	C854.158936,209.489716 853.496033,209.455246 852.298096,209.030869 
	C847.166992,208.444473 842.570862,208.247986 837.974670,208.051514 
	C826.552734,207.202637 815.136108,206.274826 803.708008,205.518448 
	C752.414490,202.123535 701.156494,203.054916 649.903198,206.612427 
	C608.836182,209.462891 567.930298,213.943604 527.494629,221.476593 
	C494.152222,227.688141 460.957367,235.019104 428.098358,243.422791 
	C374.964264,257.011810 323.515442,275.609497 274.253876,299.892670 
	C230.429977,321.495331 189.118744,346.930145 154.063461,381.437714 
	C132.626526,402.539673 114.659622,426.127045 104.150658,454.736877 
	C99.348076,467.811554 96.534866,481.272491 96.067673,495.208862 
	C96.025749,496.459412 95.899902,497.707123 95.813034,498.956146 
	C95.237236,499.086029 94.661438,499.215942 94.085640,499.345856 
	C90.928528,489.317535 87.003693,479.458221 84.752121,469.230560 
	C76.615898,432.272125 86.312866,398.993530 107.155266,368.410919 
	C126.615425,339.856476 152.466156,318.003296 181.061432,299.170105 
	C224.231110,270.738068 271.385590,250.939102 320.352448,235.066742 
	C355.858276,223.557709 391.936584,214.160889 428.689850,207.852356 
	C460.007141,202.476913 491.515778,197.997665 523.080078,194.329300 
	C574.125427,188.396851 625.462585,186.462784 676.780029,188.471237 
	C714.525513,189.948547 752.213928,193.386093 789.858521,196.729797 
	C808.231384,198.361725 826.454346,201.718124 844.724854,204.431030 
	C847.953552,204.910431 851.081726,206.066254 854.688721,207.281143 
	C855.021362,208.276459 854.921631,208.900330 854.821899,209.524185 
z"/>
<path fill="#2D5CAC" opacity="1.000000" stroke="none" 
	d="
M662.206177,854.000244 
	C662.209167,889.995911 662.174683,925.491638 662.276917,960.986938 
	C662.286682,964.361816 661.631287,966.434631 658.112793,967.775452 
	C626.649170,979.765564 596.366394,994.272217 567.127930,1010.967590 
	C566.313721,1011.432556 565.350708,1011.636902 563.728577,1012.228394 
	C563.728577,1009.613464 563.728638,1007.490112 563.728638,1005.366760 
	C563.728210,793.726257 563.749207,582.085754 563.599304,370.445374 
	C563.595703,365.325287 564.822510,363.240051 570.002014,362.351349 
	C598.700134,357.427216 627.338013,352.152435 656.002502,347.031097 
	C657.771362,346.715057 659.591064,346.683258 662.206543,346.444366 
	C662.206543,515.744995 662.206543,684.622620 662.206177,854.000244 
M564.987793,606.500000 
	C564.987793,740.545227 564.987793,874.590454 564.987793,1008.484192 
	C566.210388,1008.702271 566.608582,1008.912292 566.837830,1008.794312 
	C576.538025,1003.801392 585.630798,997.717224 595.790955,993.511414 
	C603.359009,990.378723 610.437378,986.084595 617.894592,982.657349 
	C629.256470,977.435608 640.649475,972.249023 652.240845,967.571838 
	C658.871338,964.896484 660.046509,964.040100 660.046509,956.937622 
	C660.046570,756.786926 660.046570,556.636230 660.046143,356.485535 
	C660.046143,355.152344 660.075989,353.817871 660.028992,352.486237 
	C659.940491,349.980133 659.035767,349.184540 656.219788,349.621033 
	C647.564392,350.962585 638.805908,351.641724 630.153015,352.996704 
	C624.169617,353.933594 618.319580,355.689941 612.366272,356.857147 
	C598.749207,359.526886 585.170227,362.526459 571.442810,364.435486 
	C565.326599,365.286072 564.920410,368.180054 564.925903,373.018616 
	C565.013733,450.512329 564.987854,528.006165 564.987793,606.500000 
z"/>
<path fill="#1F5BAB" opacity="1.000000" stroke="none" 
	d="
M492.968567,584.000000 
	C492.968475,740.809021 492.946472,897.118103 493.071655,1053.427002 
	C493.075500,1058.238281 491.689575,1061.251343 487.852356,1064.252808 
	C453.994659,1090.736450 423.306732,1120.391724 398.049988,1155.375488 
	C397.290833,1156.427002 396.412384,1157.392456 394.947693,1159.182495 
	C394.802582,1156.621216 394.633026,1155.025024 394.632996,1153.428955 
	C394.628571,911.466797 394.660583,669.504700 394.507324,427.542664 
	C394.503418,421.374359 395.976746,418.083069 402.081604,415.889679 
	C431.180298,405.434875 460.112762,394.517487 489.111847,383.784912 
	C490.013580,383.451202 490.997498,383.339417 492.968597,382.890747 
	C492.968597,450.101562 492.968597,516.800781 492.968567,584.000000 
M396.001953,1135.663330 
	C396.006683,1136.107300 396.011414,1136.551147 396.003143,1137.928467 
	C396.003143,1142.444092 396.003143,1146.959717 396.003143,1152.107544 
	C399.728424,1147.816284 402.774841,1144.495361 405.600586,1140.996216 
	C408.147583,1137.842163 410.198151,1134.260986 412.916290,1131.276855 
	C419.044403,1124.548950 425.394531,1118.019409 431.758514,1111.511108 
	C437.942719,1105.186646 444.133331,1098.859131 450.550751,1092.775146 
	C456.333069,1087.293335 462.450958,1082.166748 468.374329,1076.831787 
	C472.472809,1073.140381 476.190308,1069.296387 481.260620,1066.460815 
	C487.196106,1063.141479 491.327332,1058.307739 491.312592,1049.511353 
	C490.945648,830.576416 491.025391,611.640747 491.022278,392.705200 
	C491.022247,391.040192 491.013885,389.372620 490.914246,387.711975 
	C490.890045,387.308105 490.488068,386.926910 489.979156,386.053833 
	C489.263367,387.485748 488.744659,388.523499 488.078949,389.855255 
	C487.302155,388.847931 486.747925,388.129242 486.126251,387.323059 
	C485.048889,388.138336 483.905212,389.687683 483.052979,389.541199 
	C475.800690,388.294830 470.130585,392.473785 463.883118,394.707428 
	C458.579346,396.603699 453.180328,398.233398 447.824005,399.982941 
	C447.038177,400.239563 446.243713,400.475372 445.473419,400.773163 
	C431.364899,406.227692 417.194397,411.532440 403.214264,417.298584 
	C400.738251,418.319794 397.931396,420.958710 397.256805,423.398041 
	C396.044800,427.780670 396.038391,432.578278 396.037537,437.202576 
	C395.994720,669.800720 396.005981,902.398926 396.001953,1135.663330 
z"/>
<path fill="#3B6CB2" opacity="1.000000" stroke="none" 
	d="
M523.659180,277.310455 
	C521.307129,278.572937 518.637573,280.293854 515.754700,280.800201 
	C500.634277,283.455994 485.431641,285.644623 470.313538,288.312744 
	C459.295380,290.257324 448.327423,292.529266 437.405243,294.961365 
	C428.383728,296.970245 419.458954,299.415375 410.497620,301.692078 
	C406.699615,302.656982 402.892212,303.598511 399.133972,304.703400 
	C391.160522,307.047485 383.199707,309.437805 375.264587,311.908325 
	C364.758911,315.179199 354.157593,318.200836 343.825928,321.958038 
	C331.215179,326.544037 318.640137,331.335968 306.417816,336.854279 
	C292.109955,343.314240 278.061981,350.391937 264.155823,357.686951 
	C251.505829,364.322998 238.912399,371.156647 226.828888,378.753876 
	C217.393768,384.686005 208.791595,391.939880 199.784668,398.559326 
	C198.496902,399.505768 197.013702,400.186310 195.252045,400.954926 
	C205.431793,392.869385 215.588989,384.232910 226.600876,376.875671 
	C262.930237,352.603455 302.492340,334.834534 343.535126,320.212494 
	C392.555420,302.748383 442.874298,290.358887 494.176453,281.849426 
	C503.855682,280.243958 513.553833,278.752533 523.659180,277.310455 
z"/>
<path fill="#3A6EAA" opacity="1.000000" stroke="none" 
	d="
M696.362549,312.576508 
	C699.696655,311.660431 703.431702,310.467010 707.234131,310.186493 
	C731.700073,308.381409 756.158813,306.186127 780.662903,305.278229 
	C803.279114,304.440216 825.953064,304.781036 848.594055,305.113281 
	C867.025391,305.383698 885.501038,305.742249 903.856445,307.270233 
	C926.419250,309.148468 948.915100,311.997772 971.368835,314.965179 
	C988.734253,317.260132 1006.088196,319.888824 1023.263245,323.296631 
	C1036.526123,325.928223 1049.503784,329.998199 1062.578613,333.675323 
	C1062.099609,333.930267 1061.650024,333.938599 1061.200562,333.946930 
	C1026.794189,325.416687 992.062439,318.533051 956.880127,314.166565 
	C906.424255,307.904419 855.734924,304.907562 804.920776,306.479034 
	C770.844238,307.532898 736.821167,310.321350 702.774353,312.335968 
	C700.780579,312.453918 698.787903,312.592407 696.362549,312.576508 
z"/>
<path fill="#3A6EAA" opacity="1.000000" stroke="none" 
	d="
M257.476959,470.181763 
	C261.156799,466.030609 264.926788,461.523438 269.275482,457.669159 
	C272.812164,454.534546 277.198578,452.381561 280.937256,449.447937 
	C295.445129,438.063995 310.866089,428.130951 327.117676,419.421661 
	C337.379303,413.922455 347.372711,407.922913 357.631317,402.417786 
	C362.245178,399.941772 367.221924,398.145386 372.018738,396.006348 
	C385.041748,390.199036 397.954010,384.127472 411.110321,378.640472 
	C420.071472,374.903137 429.409027,372.078247 438.503632,368.647491 
	C445.121094,366.151215 451.501129,362.987305 458.195435,360.742493 
	C466.769073,357.867462 475.542419,355.582855 484.248291,353.109070 
	C489.557434,351.600464 494.933441,350.321930 500.222107,348.747589 
	C507.485474,346.585419 514.664551,344.137939 521.940002,342.019379 
	C525.422974,341.005096 529.040710,340.448059 532.603943,339.715729 
	C538.201233,338.565399 543.804077,337.441956 549.665649,336.555267 
	C537.439819,340.168762 524.948120,343.516235 512.466797,346.902405 
	C444.323059,365.389709 378.819916,390.339600 317.971802,426.612152 
	C296.642761,439.326721 276.605804,453.862640 257.476959,470.181763 
z"/>
<path fill="#3B6CB2" opacity="1.000000" stroke="none" 
	d="
M814.628296,271.959808 
	C808.419067,272.037598 801.852600,272.157593 795.309814,271.820190 
	C787.034851,271.393433 778.788818,270.250580 770.513367,270.017456 
	C740.425537,269.169891 710.332520,268.465881 680.237549,267.929871 
	C666.468933,267.684631 652.661621,267.397522 638.924377,268.123230 
	C617.738708,269.242462 596.580078,271.013031 575.444580,272.896027 
	C560.459778,274.231049 545.533875,276.224304 530.575623,277.868225 
	C529.277405,278.010895 527.933655,277.738373 526.307190,277.411255 
	C553.280884,274.217438 580.496460,270.253082 607.851929,268.586487 
	C640.889771,266.573700 674.067749,265.322479 707.145569,265.921509 
	C742.881348,266.568726 778.571533,269.732697 814.628296,271.959808 
z"/>
<path fill="#3B6CB2" opacity="1.000000" stroke="none" 
	d="
M1061.499756,334.114319 
	C1061.650024,333.938599 1062.099609,333.930267 1062.885010,333.869202 
	C1064.381836,333.846832 1065.543701,333.910889 1066.703247,333.882172 
	C1066.969849,333.875580 1067.228638,333.550537 1068.013916,333.016357 
	C1062.159424,330.630737 1056.686646,328.176758 1051.059448,326.152527 
	C1037.885620,321.413788 1024.753418,316.506470 1011.386414,312.372223 
	C998.505493,308.388275 985.385681,305.151672 972.306702,301.839935 
	C959.308533,298.548645 946.291199,295.283234 933.172180,292.531281 
	C916.561218,289.046875 899.898193,285.728119 883.148560,283.010406 
	C865.894897,280.210938 848.505676,278.251770 831.189758,275.825165 
	C829.457947,275.582458 827.822998,274.648743 826.033081,273.692444 
	C836.983948,274.603729 848.147095,275.281799 859.086182,277.222595 
	C890.022583,282.711304 921.021484,288.009216 951.709595,294.696014 
	C991.571838,303.381836 1030.327515,315.969330 1068.183960,331.237976 
	C1069.260376,331.672150 1070.292603,332.216156 1071.598389,332.936462 
	C1071.851318,333.164032 1071.800781,333.221069 1071.523193,333.165649 
	C1070.711914,333.299683 1070.178223,333.489075 1069.644531,333.678467 
	C1070.429688,333.785248 1071.214844,333.891998 1072.000000,333.999390 
	C1072.000000,334.000000 1072.000000,334.001221 1071.990967,334.341553 
	C1071.998413,335.362427 1072.014893,336.042969 1072.031250,336.723511 
	C1068.620483,335.909576 1065.209717,335.095642 1061.499756,334.114319 
z"/>
<path fill="#3B6CB2" opacity="1.000000" stroke="none" 
	d="
M129.028351,504.342590 
	C129.405762,506.407684 129.794693,508.828796 129.828140,511.254791 
	C129.962051,520.967896 128.479813,530.990723 130.390320,540.326965 
	C133.538330,555.710571 137.536499,571.159363 146.126068,584.726929 
	C150.390701,591.463135 155.221817,597.839294 159.719482,604.430969 
	C160.326706,605.320862 160.481674,606.519409 160.726746,607.945007 
	C147.516708,593.578979 138.651535,576.471741 132.836456,557.784546 
	C127.440704,540.445007 125.785583,522.724182 129.028351,504.342590 
z"/>
<path fill="#3A6EAA" opacity="1.000000" stroke="none" 
	d="
M552.311584,336.504272 
	C553.585510,335.307434 555.120728,333.609863 556.936523,333.220184 
	C565.466675,331.389679 574.064697,329.867432 582.655579,328.330139 
	C598.266907,325.536652 613.944397,323.078491 629.485413,319.941162 
	C637.051575,318.413757 644.501160,316.688721 652.578491,317.411560 
	C643.596619,319.253571 634.280518,320.713287 625.025330,322.490143 
	C600.903381,327.121246 576.808105,331.891418 552.311584,336.504272 
z"/>
<path fill="#3B6CB2" opacity="1.000000" stroke="none" 
	d="
M200.450836,648.178955 
	C201.742691,647.887390 203.162018,647.887390 205.318542,647.887390 
	C203.502106,643.805725 202.325699,640.232178 200.436035,637.087219 
	C194.323166,626.913208 193.070755,615.380432 191.211395,604.103638 
	C190.208679,598.022156 190.801895,591.677490 191.014648,585.188660 
	C192.038696,592.997925 192.179474,601.161682 193.520828,609.123169 
	C196.311569,625.687439 202.942444,640.810669 212.356079,654.715454 
	C212.998779,655.664795 213.528030,656.690979 213.540680,658.430969 
	C209.219894,655.110840 204.899094,651.790649 200.450836,648.178955 
z"/>
<path fill="#3B6CB2" opacity="1.000000" stroke="none" 
	d="
M150.442169,449.759216 
	C148.746811,454.162994 147.006409,458.859161 144.705399,463.262360 
	C138.912994,474.346527 134.326675,485.830414 131.871948,498.133850 
	C131.606720,499.463287 130.694427,500.663635 129.736374,502.004578 
	C131.973236,482.972107 139.763458,465.930359 150.442169,449.759216 
z"/>
<path fill="#3A6EAA" opacity="1.000000" stroke="none" 
	d="
M202.039200,539.123474 
	C205.352631,532.932983 208.286377,526.498169 212.074356,520.613098 
	C216.952103,513.034973 222.493256,505.882080 227.814789,498.594269 
	C228.346024,497.866730 229.334854,497.473358 230.458801,496.919678 
	C226.292496,503.049072 221.448807,508.972351 217.349304,515.372314 
	C212.343369,523.187317 207.962219,531.402527 202.895813,539.601013 
	C202.260498,539.596924 202.113312,539.385620 202.039200,539.123474 
z"/>
<path fill="#6282B9" opacity="1.000000" stroke="none" 
	d="
M855.210815,209.711578 
	C854.921631,208.900330 855.021362,208.276459 855.067139,207.338470 
	C864.096802,208.774750 873.180420,210.525146 882.630127,212.140503 
	C882.996216,212.005447 882.994995,212.000305 882.994995,212.000290 
	C881.857056,212.379501 880.667236,213.196091 879.589539,213.068115 
	C871.580444,212.117126 863.593506,210.978638 855.210815,209.711578 
z"/>
<path fill="#3B6CB2" opacity="1.000000" stroke="none" 
	d="
M176.427963,417.720612 
	C174.831207,420.366821 173.024399,423.208130 170.969559,425.857056 
	C165.525177,432.875427 159.993301,439.826447 154.439651,446.758881 
	C153.739365,447.633087 152.700104,448.235718 151.480499,449.003418 
	C159.463654,438.637756 167.784241,428.232880 176.427963,417.720612 
z"/>
<path fill="#3A6EAA" opacity="1.000000" stroke="none" 
	d="
M231.233002,496.715637 
	C233.414124,493.112610 235.533157,489.076874 238.493057,485.800812 
	C242.884781,480.940002 247.831619,476.573639 252.647034,472.109924 
	C253.419632,471.393799 254.737823,471.266205 256.149506,470.880188 
	C248.179169,479.470123 239.863129,488.046448 231.233002,496.715637 
z"/>
<path fill="#3A6EAA" opacity="1.000000" stroke="none" 
	d="
M655.483276,317.493103 
	C659.332764,316.442780 663.553589,315.213501 667.860901,314.674622 
	C676.291565,313.619904 684.770386,312.950287 693.548157,312.354126 
	C684.679565,313.881561 675.495850,315.203369 666.302795,316.456757 
	C662.844299,316.928253 659.364075,317.241028 655.483276,317.493103 
z"/>
<path fill="#3B6CB2" opacity="1.000000" stroke="none" 
	d="
M201.764206,539.321350 
	C202.113312,539.385620 202.260498,539.596924 202.657745,539.844238 
	C199.599960,550.730225 196.365173,561.529358 192.900055,572.627197 
	C192.790054,570.388000 192.504288,567.749390 193.103485,565.329956 
	C195.281189,556.536743 196.310257,547.343018 201.764206,539.321350 
z"/>
<path fill="#3B6CB2" opacity="1.000000" stroke="none" 
	d="
M177.145844,627.268738 
	C178.586670,627.456482 180.385788,627.606567 181.492081,628.560364 
	C186.536530,632.909546 191.448776,637.419006 196.268967,642.017212 
	C197.763748,643.443115 198.818436,645.330261 200.087616,647.349487 
	C192.462128,640.995544 184.823593,634.298401 177.145844,627.268738 
z"/>
<path fill="#3B6CB2" opacity="1.000000" stroke="none" 
	d="
M160.708160,608.681519 
	C161.812286,608.864197 163.381409,609.061279 164.103073,609.947998 
	C167.875778,614.583923 171.433411,619.394897 175.073303,624.504395 
	C170.314560,619.580627 165.548370,614.297363 160.708160,608.681519 
z"/>
<path fill="#3663A6" opacity="1.000000" stroke="none" 
	d="
M1072.279541,336.849121 
	C1072.014893,336.042969 1071.998413,335.362427 1072.280273,334.350952 
	C1073.151123,334.071014 1073.723633,334.121979 1074.296265,334.172943 
	C1074.671875,334.272858 1075.047607,334.372772 1075.927490,334.720459 
	C1076.431885,334.968292 1076.431274,335.038086 1076.431274,335.038086 
	C1077.081665,335.208771 1077.731934,335.379486 1078.837891,335.706238 
	C1079.293579,335.862244 1079.156738,335.853363 1079.156738,335.853333 
	C1079.531738,336.060364 1079.906616,336.267395 1080.849854,336.702698 
	C1081.418213,336.931000 1081.305542,336.997467 1081.305542,336.997467 
	C1081.305542,336.997467 1081.721558,337.138275 1082.000732,337.433502 
	C1082.635132,337.836060 1082.990479,337.943390 1083.345703,338.050659 
	C1084.259766,338.402679 1085.173706,338.754730 1086.087646,339.106781 
	C1085.620483,339.772797 1085.153320,340.438782 1084.686157,341.104767 
	C1081.659058,340.068817 1078.631836,339.032837 1075.094849,337.645386 
	C1074.283203,337.120514 1073.961060,337.065063 1073.618652,337.127625 
	C1073.255127,337.076660 1072.891479,337.025696 1072.279541,336.849121 
z"/>
<path fill="#3B6CB2" opacity="1.000000" stroke="none" 
	d="
M192.462097,402.775482 
	C190.001068,405.431458 187.203796,408.164246 184.043335,410.846741 
	C186.495377,408.148346 189.310638,405.500336 192.462097,402.775482 
z"/>
<path fill="#6282B9" opacity="1.000000" stroke="none" 
	d="
M838.332458,208.210815 
	C842.570862,208.247986 847.166992,208.444473 851.980530,208.931778 
	C847.695312,208.938431 843.192810,208.654282 838.332458,208.210815 
z"/>
<path fill="#3B6CB2" opacity="1.000000" stroke="none" 
	d="
M182.471436,411.770386 
	C181.179031,413.475525 179.557968,415.272583 177.584412,417.061218 
	C178.868881,415.322601 180.505844,413.592468 182.471436,411.770386 
z"/>
<path fill="#3B6CB2" opacity="1.000000" stroke="none" 
	d="
M191.615204,583.239746 
	C191.496765,580.767090 191.624710,578.006470 192.088470,575.080505 
	C192.236725,577.594055 192.049149,580.272888 191.615204,583.239746 
z"/>
<path fill="#3B6CB2" opacity="1.000000" stroke="none" 
	d="
M822.630127,272.978882 
	C821.011841,273.105133 819.063049,273.046082 817.015625,272.650940 
	C818.711304,272.474426 820.505432,272.634003 822.630127,272.978882 
z"/>
<path fill="#3B6CB2" opacity="1.000000" stroke="none" 
	d="
M175.225769,625.203125 
	C175.774979,625.365906 176.402664,625.813904 177.049652,626.574402 
	C176.480728,626.420715 175.892487,625.954468 175.225769,625.203125 
z"/>
<path fill="#3B6CB2" opacity="1.000000" stroke="none" 
	d="
M1074.127686,333.962830 
	C1073.723633,334.121979 1073.151123,334.071014 1072.289307,334.010620 
	C1072.000000,334.001221 1072.000000,334.000000 1071.966309,333.800812 
	C1071.932739,333.601624 1071.800781,333.221069 1071.800781,333.221069 
	C1071.800781,333.221069 1071.851318,333.164032 1071.876099,333.135132 
	C1072.586914,333.321716 1073.273071,333.537231 1074.127686,333.962830 
z"/>
<path fill="#3B6CB2" opacity="1.000000" stroke="none" 
	d="
M1083.236084,337.884949 
	C1082.990479,337.943390 1082.635132,337.836060 1082.137939,337.604980 
	C1082.372803,337.560577 1082.749756,337.639893 1083.236084,337.884949 
z"/>
<path fill="#3B6CB2" opacity="1.000000" stroke="none" 
	d="
M193.824677,401.593292 
	C193.960571,401.687042 193.736084,402.041016 193.624847,402.030823 
	C193.513611,402.020599 193.428741,401.701843 193.428741,401.701843 
	C193.428741,401.701843 193.688797,401.499542 193.824677,401.593292 
z"/>
<path fill="#3B6CB2" opacity="1.000000" stroke="none" 
	d="
M1081.352295,336.967682 
	C1081.305542,336.997467 1081.418213,336.931000 1081.447754,336.937622 
	C1081.477417,336.944244 1081.399048,336.937897 1081.352295,336.967682 
z"/>
<path fill="#3B6CB2" opacity="1.000000" stroke="none" 
	d="
M1079.198853,335.873108 
	C1079.156738,335.853363 1079.293579,335.862244 1079.308350,335.893707 
	C1079.322998,335.925171 1079.240967,335.892883 1079.198853,335.873108 
z"/>
<path fill="#3B6CB2" opacity="1.000000" stroke="none" 
	d="
M1076.466553,334.947845 
	C1076.431274,335.038086 1076.431885,334.968292 1076.444214,334.990662 
	C1076.456543,335.013031 1076.501709,334.857605 1076.466553,334.947845 
z"/>
<path fill="#6282B9" opacity="1.000000" stroke="none" 
	d="
M882.999878,212.002869 
	C883.003540,212.000290 883.165100,211.923370 883.165100,211.923370 
	C883.165100,211.923370 882.955139,211.870743 882.975098,211.935516 
	C882.994995,212.000305 882.996216,212.005447 882.999878,212.002869 
z"/>
<path fill="#3B6CB2" opacity="1.000000" stroke="none" 
	d="
M1073.787598,337.320007 
	C1073.961060,337.065063 1074.283203,337.120514 1074.762451,337.466858 
	C1074.612061,337.597321 1074.284180,337.554871 1073.787598,337.320007 
z"/>
<path fill="#0149AC" opacity="1.000000" stroke="none" 
	d="
M564.987793,606.000000 
	C564.987854,528.006165 565.013733,450.512329 564.925903,373.018616 
	C564.920410,368.180054 565.326599,365.286072 571.442810,364.435486 
	C585.170227,362.526459 598.749207,359.526886 612.366272,356.857147 
	C618.319580,355.689941 624.169617,353.933594 630.153015,352.996704 
	C638.805908,351.641724 647.564392,350.962585 656.219788,349.621033 
	C659.035767,349.184540 659.940491,349.980133 660.028992,352.486237 
	C660.075989,353.817871 660.046143,355.152344 660.046143,356.485535 
	C660.046570,556.636230 660.046570,756.786926 660.046509,956.937622 
	C660.046509,964.040100 658.871338,964.896484 652.240845,967.571838 
	C640.649475,972.249023 629.256470,977.435608 617.894592,982.657349 
	C610.437378,986.084595 603.359009,990.378723 595.790955,993.511414 
	C585.630798,997.717224 576.538025,1003.801392 566.837830,1008.794312 
	C566.608582,1008.912292 566.210388,1008.702271 564.987793,1008.484192 
	C564.987793,874.590454 564.987793,740.545227 564.987793,606.000000 
z"/>
<path fill="#0049AC" opacity="1.000000" stroke="none" 
	d="
M396.011353,1134.997070 
	C396.005981,902.398926 395.994720,669.800720 396.037537,437.202576 
	C396.038391,432.578278 396.044800,427.780670 397.256805,423.398041 
	C397.931396,420.958710 400.738251,418.319794 403.214264,417.298584 
	C417.194397,411.532440 431.364899,406.227692 445.473419,400.773163 
	C446.243713,400.475372 447.038177,400.239563 447.824005,399.982941 
	C453.180328,398.233398 458.579346,396.603699 463.883118,394.707428 
	C470.130585,392.473785 475.800690,388.294830 483.052979,389.541199 
	C483.905212,389.687683 485.048889,388.138336 486.126251,387.323059 
	C486.747925,388.129242 487.302155,388.847931 488.078949,389.855255 
	C488.744659,388.523499 489.263367,387.485748 489.979156,386.053833 
	C490.488068,386.926910 490.890045,387.308105 490.914246,387.711975 
	C491.013885,389.372620 491.022247,391.040192 491.022278,392.705200 
	C491.025391,611.640747 490.945648,830.576416 491.312592,1049.511353 
	C491.327332,1058.307739 487.196106,1063.141479 481.260620,1066.460815 
	C476.190308,1069.296387 472.472809,1073.140381 468.374329,1076.831787 
	C462.450958,1082.166748 456.333069,1087.293335 450.550751,1092.775146 
	C444.133331,1098.859131 437.942719,1105.186646 431.758514,1111.511108 
	C425.394531,1118.019409 419.044403,1124.548950 412.916290,1131.276855 
	C410.198151,1134.260986 408.147583,1137.842163 405.600586,1140.996216 
	C402.774841,1144.495361 399.728424,1147.816284 396.003143,1152.107544 
	C396.003143,1146.959717 396.003143,1142.444092 396.423340,1137.445923 
	C397.561584,1134.895630 398.907562,1132.828247 398.908447,1130.760254 
	C399.003601,900.635315 398.998413,670.510315 398.998657,440.385345 
	C398.998657,439.385529 399.091614,438.373840 398.968445,437.389282 
	C398.848602,436.431122 398.506561,435.500732 398.262054,434.558167 
	C397.841370,434.598480 397.420685,434.638824 397.000000,434.679138 
	C397.000000,436.763306 397.000000,438.847473 397.000000,440.931641 
	C397.000000,670.056824 397.002777,899.181946 396.959045,1128.307129 
	C396.958618,1130.537109 396.340881,1132.767090 396.011353,1134.997070 
M488.810333,397.255341 
	C488.151062,398.777344 487.491760,400.299347 486.832489,401.821350 
	C487.457062,402.008575 488.081665,402.195831 488.706268,402.383057 
	C488.783264,400.918762 488.860229,399.454468 488.810333,397.255341 
z"/>
<path fill="#004DA1" opacity="1.000000" stroke="none" 
	d="
M396.006653,1135.330200 
	C396.340881,1132.767090 396.958618,1130.537109 396.959045,1128.307129 
	C397.002777,899.181946 397.000000,670.056824 397.000000,440.931641 
	C397.000000,438.847473 397.000000,436.763306 397.000000,434.679138 
	C397.420685,434.638824 397.841370,434.598480 398.262054,434.558167 
	C398.506561,435.500732 398.848602,436.431122 398.968445,437.389282 
	C399.091614,438.373840 398.998657,439.385529 398.998657,440.385345 
	C398.998413,670.510315 399.003601,900.635315 398.908447,1130.760254 
	C398.907562,1132.828247 397.561584,1134.895630 396.429871,1136.979248 
	C396.011414,1136.551147 396.006683,1136.107300 396.006653,1135.330200 
z"/>
<path fill="#3663A6" opacity="1.000000" stroke="none" 
	d="
M1071.523193,333.165649 
	C1071.800781,333.221069 1071.932739,333.601624 1071.966309,333.800201 
	C1071.214844,333.891998 1070.429688,333.785248 1069.644531,333.678467 
	C1070.178223,333.489075 1070.711914,333.299683 1071.523193,333.165649 
z"/>
<path fill="#1F5BAB" opacity="1.000000" stroke="none" 
	d="
M488.873779,397.622742 
	C488.860229,399.454468 488.783264,400.918762 488.706268,402.383057 
	C488.081665,402.195831 487.457062,402.008575 486.832489,401.821350 
	C487.491760,400.299347 488.151062,398.777344 488.873779,397.622742 
z"/>
</svg>