<svg width="60" height="33" viewBox="0 0 60 33" fill="none" xmlns="http://www.w3.org/2000/svg">
<path fill-rule="evenodd" clip-rule="evenodd" d="M27.6913 16.1163C26.8802 17.0062 26.1662 17.9794 25.5614 19.0195C24.4367 21.0908 23.9085 23.7734 25.3398 25.8447C26.2089 27.101 27.3505 27.899 28.7648 28.4593C29.8894 28.9007 31.0822 28.8667 32.2579 28.68C34.3026 28.3744 36.16 27.0501 37.6253 25.6749C39.0907 24.2997 40.5902 22.2963 41.6978 20.3778C42.8936 18.3312 43.805 16.1322 44.4071 13.8413C45.0035 11.5323 45.2079 9.1384 44.7649 6.79544C44.5453 5.66745 44.0945 4.59672 43.4407 3.65022C42.7869 2.70372 41.9441 1.9018 40.9651 1.2946C38.4603 -0.216435 35.325 -0.216435 32.5476 0.343836C30.8947 0.666416 29.3101 1.31158 27.7935 2.00767C26.3843 2.68553 25.0286 3.46876 23.7381 4.35062C17.9788 8.23857 13.1055 13.298 8.52183 18.4762C7.66991 19.427 6.83502 20.3946 6.00014 21.3623L5.99999 21.3625C5.45472 21.9907 5.09689 22.6868 5.09689 23.5187C5.10407 24.3323 5.42782 25.1114 5.99999 25.6919C6.57933 26.2182 7.34611 26.6256 8.16401 26.5747C8.9819 26.5238 9.7998 26.3031 10.328 25.6919C13.8552 21.6341 17.4165 17.6274 21.3867 14.0111C22.5185 12.976 23.6785 11.9832 24.8796 11.0325C26.9407 9.47428 29.1234 8.04579 31.4969 7.02291C32.4819 6.63569 33.5042 6.34943 34.5477 6.16864C35.2004 6.09608 35.8585 6.08553 36.513 6.13709C36.8532 6.19835 37.1885 6.28363 37.5166 6.39228C37.6827 6.47742 37.845 6.56983 38.003 6.66922C38.1063 6.76357 38.2057 6.86218 38.3008 6.96477C38.4046 7.12367 38.4997 7.28812 38.5856 7.45734C38.6886 7.75233 38.7719 8.05376 38.8349 8.35963C38.9022 9.0586 38.9044 9.76203 38.8415 10.4609C38.6116 11.9456 38.2139 13.3992 37.6563 14.7941C36.8464 16.6447 35.5464 18.7093 34.6264 19.9533C33.6722 21.2436 31.7126 23.6375 30.7414 22.8396L27.6913 16.1163ZM30.9799 7.23687C31.1251 7.17374 31.2711 7.11284 31.4179 7.05419L30.9799 7.23687ZM38.9203 8.86675L38.8898 8.65825C38.901 8.72756 38.9112 8.79707 38.9203 8.86675ZM38.767 11.0909L38.8259 10.6213C38.8095 10.7781 38.7899 10.9347 38.767 11.0909ZM37.4379 15.3184L37.6098 14.9092C37.5541 15.0461 37.4968 15.1826 37.4379 15.3184ZM3.06918 32.5C3.88054 32.492 4.65683 32.1692 5.2332 31.6002C5.51905 31.3179 5.74602 30.9821 5.90102 30.612C6.05602 30.2419 6.13597 29.845 6.13629 29.444C6.06813 27.7801 4.79017 26.3879 3.06918 26.3879C2.26127 26.3966 1.4872 26.7124 0.905166 27.2708C0.359901 27.8141 -0.0320166 28.68 0.0020625 29.444C0.0702206 31.0908 1.34818 32.5 3.06918 32.5ZM56.9311 4.62227C58.1412 5.41838 59.0568 6.58702 59.5382 7.94994C59.913 8.91768 60.0153 10.0213 59.9982 11.0399C59.959 12.2469 59.7991 13.4469 59.5211 14.6223C58.9929 16.9652 58.0898 19.2063 57.1526 21.3965C56.0641 23.9307 54.8119 26.392 53.4039 28.7649C52.5179 30.225 50.6946 30.6324 49.2122 29.8515C48.5477 29.5119 47.9854 28.7309 47.7979 28.0348C47.5892 27.2383 47.6992 26.3922 48.1046 25.6749C48.1803 25.5618 48.2467 25.4393 48.3106 25.3214C48.333 25.28 48.3551 25.2392 48.3773 25.1995C49.6736 22.9473 50.8399 20.6232 51.8704 18.2386L51.6659 18.7309L51.9726 18.0009L51.8704 18.2386C52.7735 16.0824 53.5573 13.8583 53.864 11.5493C53.8679 11.5284 53.8736 11.5006 53.8804 11.4671C53.9623 11.0649 54.2139 9.82926 53.7106 9.56285C53.1654 9.27422 51.7852 9.61378 51.7852 9.61378L51.4785 9.68169L51.8022 3.6036C52.2385 3.56684 52.6766 3.5555 53.1143 3.56964C54.4093 3.62058 55.8235 3.89222 56.9311 4.62227Z" fill="url(#paint0_linear_16266_44493)"/>
<path d="M39.568 7.52539L38.716 7.89891C35.6814 9.52769 32.8259 11.4681 30.1962 13.6884C29.3077 14.4409 28.4709 15.252 27.6914 16.1162L30.7415 22.8395C29.7702 22.0415 33.9279 18.4931 35.0354 17.5593C35.6029 17.1037 36.1945 16.6786 36.8076 16.286L39.6191 14.0958L39.568 7.52539Z" fill="url(#paint1_linear_16266_44493)"/>
<path d="M49.1777 3.97703C47.9501 4.20565 46.7423 4.5292 45.5653 4.94477L44.3555 5.36922L44.7644 11.7699C46.9303 10.8622 49.1784 10.1629 51.478 9.68161L51.8017 3.60352C50.9203 3.67559 50.0441 3.80032 49.1777 3.97703Z" fill="url(#paint2_linear_16266_44493)"/>
<defs>
<linearGradient id="paint0_linear_16266_44493" x1="-0.0137237" y1="16.2515" x2="59.9918" y2="16.2515" gradientUnits="userSpaceOnUse">
<stop offset="0.02" stop-color="#5C4DF4"/>
<stop offset="0.557292" stop-color="#1598FF"/>
<stop offset="1" stop-color="#17BCFF"/>
</linearGradient>
<linearGradient id="paint1_linear_16266_44493" x1="32.3602" y1="14.4184" x2="45.7114" y2="6.56638" gradientUnits="userSpaceOnUse">
<stop stop-color="#218CFE"/>
<stop offset="1" stop-color="#3DB9FF" stop-opacity="0"/>
</linearGradient>
<linearGradient id="paint2_linear_16266_44493" x1="49.74" y1="8.47617" x2="39.9471" y2="11.1256" gradientUnits="userSpaceOnUse">
<stop stop-color="#17B1FF"/>
<stop offset="1" stop-color="#179EFF" stop-opacity="0"/>
</linearGradient>
</defs>
</svg>
